<svg xmlns="http://www.w3.org/2000/svg" width="128" height="31" viewBox="0 0 128 31" fill="none"><title>SALTO</title><g clip-path="url(#clip0_salto_dark)"><path d="M102.568 0.5L106.904 30.0181H112.521L108.186 0.5H102.568Z" fill="#50C8FF"></path><path d="M98.2264 30.0181H92.6089L96.9517 0.5H102.569L98.2264 30.0181Z" fill="#00B0A2"></path><path d="M7.9372 30.4934C5.79541 30.4934 4.01677 30.0117 2.60127 29.0557C1.18576 28.0997 0.318674 26.6471 0 24.7128L3.28308 23.9273C3.46836 24.861 3.77221 25.6021 4.20946 26.1506C4.6393 26.699 5.18771 27.0843 5.83247 27.3141C6.48464 27.5438 7.18127 27.655 7.9372 27.655C9.05626 27.655 9.91594 27.4401 10.5236 27.0028C11.1313 26.573 11.4278 26.0098 11.4278 25.3279C11.4278 24.6461 11.1388 24.1422 10.5755 23.8235C10.0049 23.5048 9.16002 23.2454 8.04095 23.0379L6.87742 22.8304C5.73613 22.6229 4.69858 22.3265 3.7648 21.9411C2.83101 21.5557 2.08991 21.0147 1.54149 20.3329C0.993076 19.6511 0.718869 18.7692 0.718869 17.702C0.718869 16.1086 1.31175 14.871 2.49751 13.9891C3.68327 13.1146 5.25441 12.6699 7.21833 12.6699C9.18225 12.6699 10.6645 13.0998 11.8873 13.952C13.1101 14.8043 13.9031 15.9678 14.2662 17.4278L10.9831 18.3542C10.7756 17.324 10.3458 16.6052 9.6862 16.1827C9.02662 15.7603 8.20399 15.5528 7.22574 15.5528C6.24749 15.5528 5.5138 15.7307 4.96538 16.0864C4.41697 16.4421 4.14276 16.9387 4.14276 17.576C4.14276 18.2578 4.40955 18.7618 4.94315 19.0805C5.47674 19.3991 6.20302 19.6363 7.11458 19.7993L8.31516 20.0068C9.52316 20.2143 10.6274 20.496 11.6353 20.8591C12.6358 21.2222 13.4288 21.7484 14.0142 22.4302C14.5923 23.112 14.8887 24.0236 14.8887 25.1649C14.8887 26.8546 14.2588 28.1664 13.0063 29.1001C11.7539 30.0339 10.0642 30.5008 7.94461 30.5008L7.9372 30.4934Z" fill="#FFFFFF"></path><path d="M23.3451 30.4928C22.1371 30.4928 21.0551 30.2853 20.1139 29.8777C19.1653 29.4701 18.4168 28.8624 17.8536 28.062C17.2977 27.2616 17.0161 26.2982 17.0161 25.1569C17.0161 24.0156 17.2977 23.0299 17.8536 22.2666C18.4094 21.5033 19.1727 20.9252 20.1436 20.5398C21.1144 20.1545 22.2112 19.9618 23.4415 19.9618H28.5699V18.865C28.5699 17.8867 28.2734 17.1011 27.6806 16.5083C27.0877 15.9154 26.1761 15.6189 24.9459 15.6189C23.7157 15.6189 22.8115 15.9005 22.1742 16.4712C21.5368 17.0418 21.1144 17.7829 20.9069 18.6945L17.6238 17.6347C17.898 16.7232 18.3353 15.8931 18.943 15.152C19.5507 14.4109 20.3511 13.8106 21.3516 13.3586C22.352 12.9065 23.56 12.6768 24.9755 12.6768C27.1618 12.6768 28.8886 13.2326 30.141 14.3516C31.3935 15.4707 32.0234 17.0567 32.0234 19.1095V26.0536C32.0234 26.7355 32.3421 27.0764 32.9794 27.0764H34.2319V30.0185H31.7863C30.9859 30.0185 30.3411 29.811 29.8372 29.4034C29.3332 28.9958 29.0812 28.4326 29.0812 27.7285V27.6248H28.5699C28.3846 27.9657 28.1104 28.3659 27.7473 28.8254C27.3841 29.2848 26.8431 29.6776 26.1391 30.0037C25.435 30.3372 24.4938 30.5002 23.3377 30.5002L23.3451 30.4928ZM23.8565 27.5877C25.272 27.5877 26.4133 27.1801 27.2804 26.3723C28.1475 25.5645 28.5773 24.4529 28.5773 23.0374V22.6965H23.649C22.7152 22.6965 21.9593 22.8965 21.3886 23.2967C20.818 23.6969 20.5363 24.2824 20.5363 25.0606C20.5363 25.8387 20.8328 26.4538 21.4257 26.9059C22.0185 27.3654 22.8263 27.5877 23.8565 27.5877Z" fill="#FFFFFF"></path><path d="M72.5099 30.4934C70.8202 30.4934 69.3231 30.1451 68.0114 29.4485C66.6996 28.7518 65.6695 27.7513 64.9136 26.4544C64.1577 25.1575 63.7871 23.616 63.7871 21.8373V21.326C63.7871 19.5473 64.1651 18.0133 64.9136 16.7237C65.6695 15.4342 66.6996 14.4412 68.0114 13.7297C69.3231 13.0257 70.8202 12.6699 72.5099 12.6699C74.1996 12.6699 75.704 13.0257 77.0232 13.7297C78.3423 14.4337 79.3799 15.4342 80.1358 16.7237C80.8917 18.0133 81.2623 19.5473 81.2623 21.326V21.8373C81.2623 23.616 80.8843 25.1575 80.1358 26.4544C79.3799 27.7513 78.3423 28.7518 77.0232 29.4485C75.6966 30.1451 74.1922 30.4934 72.5099 30.4934ZM72.5099 27.3437C74.0588 27.3437 75.3187 26.8472 76.2895 25.8541C77.2603 24.861 77.7421 23.49 77.7421 21.7336V21.4297C77.7421 19.6733 77.2603 18.3023 76.3043 17.3092C75.3483 16.3161 74.081 15.8196 72.5099 15.8196C70.9387 15.8196 69.7307 16.3161 68.7673 17.3092C67.7965 18.3023 67.3148 19.6733 67.3148 21.4297V21.7336C67.3148 23.49 67.7965 24.861 68.7673 25.8541C69.7382 26.8472 70.9832 27.3437 72.5099 27.3437Z" fill="#FFFFFF"></path><path d="M55.6486 30.0191C54.6185 30.0191 53.8032 29.7079 53.203 29.0927C52.5953 28.4776 52.2988 27.655 52.2988 26.6323V16.1309H48.7563V13.1516H52.2988V8.31966L55.819 7.20801V13.1516H61.407V16.1309H55.819V26.0172C55.819 26.699 56.1377 27.0399 56.7751 27.0399H61.9702V30.0191H55.6486Z" fill="#FFFFFF"></path><path d="M43.8661 27.0397V8.19348C43.8661 7.16334 43.5622 6.34813 42.9619 5.73302C42.3542 5.1179 41.539 4.80664 40.5163 4.80664H36.418V7.78587H39.3824C40.0197 7.78587 40.3384 8.12678 40.3384 8.80859V27.0397H35.8325V30.0189H48.7351V27.0397H43.8587H43.8661Z" fill="#FFFFFF"></path></g><defs><clipPath id="clip0_salto_dark"><rect width="127.826" height="30" fill="white" transform="translate(0 0.5)"></rect></clipPath></defs></svg>
